# xmcd
#
# Track frame offsets:
#	150
#	13962
#	28705
#	42530
#	57407
#	71617
#	86210
#	101582
#	117290
#	129677
#	144500
#	159827
#	175450
#	187600
#	202387
#
# Disc length: 2914 seconds
#
# Revision: 1
# Processed by: cddbd v1.5.1PL0 Copyright (c) Steve Scherf et al.
# Submitted via: CDex 1.50Beta5
#
DISCID=dd0b600f
DTITLE=川津恒一 - ロボットアニメメモリアルVOL.4 機甲艦隊ダイライガーXV/トランスフォーマー ザ・ヘッドマス
DYEAR=1998
DGENRE=
TTITLE0=川津恒一/銀河の青春
TTITLE1=川津恒一/愛をつたえる旅
TTITLE2=MOJO/光速電神アルベガス
TTITLE3=MOJO/戦いに赴く前に
TTITLE4=MOJO/若さのフォーメーション
TTITLE5=宮内タカユキ/ビデオ戦士レザリオン
TTITLE6=かおりくみこ/ハートフル ホットライン
TTITLE7=影山ヒロノブ/ヘッドマスターズ
TTITLE8=影山ヒロノブ/君はトランスフォーマー
TTITLE9=五十嵐寿也/超神マスターフォースのテーマ
TTITLE10=五十嵐寿也/燃えろ!トランスフォーマー
TTITLE11=茅弘二/トランスフォーマーV
TTITLE12=こおろぎ’73/サイバロンばんざい
TTITLE13=水木一郎/トランスフォーマーZのテーマ
TTITLE14=水木一郎/未来の君へ
EXTD=
EXTT0=
EXTT1=
EXTT2=
EXTT3=
EXTT4=
EXTT5=
EXTT6=
EXTT7=
EXTT8=
EXTT9=
EXTT10=
EXTT11=
EXTT12=
EXTT13=
EXTT14=
PLAYORDER=
